# xmcd
#
# Track frame offsets:
#	150
#	16890
#	35505
#	52872
#	70770
#	88502
#	107372
#	126072
#	145360
#	161880
#	177980
#	191442
#
# Disc length: 2776 seconds
#
# Revision: 0
# Processed by: cddbd v1.4PL0 Copyright (c) Steve Scherf et al.
# Submitted via: EasyCDDAExtractor 4.6.9.1
#
DISCID=980ad60c
DTITLE=Gretchen Peters - Secret Of Life
DYEAR=2001
DGENRE=Country
TTITLE0=Waiting For The Light To Turn Green
TTITLE1=Border Town
TTITLE2=I Ain't Ever Satisfied
TTITLE3=I Was Looking For You
TTITLE4=On A Bus To St. Cloud
TTITLE5=Over Africa
TTITLE6=The Uncivil War
TTITLE7=The Secret Of Life
TTITLE8=A Room With A View
TTITLE9=Circus Girl
TTITLE10=When You Are Old
TTITLE11=Independence Day
EXTD=
EXTT0=
EXTT1=
EXTT2=
EXTT3=
EXTT4=
EXTT5=
EXTT6=
EXTT7=
EXTT8=
EXTT9=
EXTT10=
EXTT11=
PLAYORDER=
